# xmcd
# 
# Track frame offsets:
#     150
#     19716
#     33855
#     48188
#     64459
#     81974
#     98053
#     116599
#     134987
#     153607
#     174636
#     190896
# 
# Disc length: 2822
# 
# Revision: 4
# Processed by: cddbd v1.5.2PL0 Copyright (c) Steve Scherf et al.
# Submitted via: fre:ac v1.0.27
# 
DISCID=a50b040c
DTITLE=John Hammond - In Your Arms Again
DYEAR=2005
DGENRE=Blues
TTITLE0=Jitterbug Swing
TTITLE1=I Got A Woman
TTITLE2=In Your Arms Again
TTITLE3=I'm Leavin' You
TTITLE4=Fool For You
TTITLE5=Evil (Is Going On)
TTITLE6=Come To Find Out
TTITLE7=You Got Me Crying
TTITLE8=Serve Me Right To Suffer
TTITLE9=Moanin' For My Baby
TTITLE10=My Baby's Gone
TTITLE11=I'll Be Your Baby Tonight
EXTD=
EXTT0=
EXTT1=
EXTT2=
EXTT3=
EXTT4=
EXTT5=
EXTT6=
EXTT7=
EXTT8=
EXTT9=
EXTT10=
EXTT11=
PLAYORDER=
